<mxfile host="app.diagrams.net" agent="Mozilla/5.0 (Windows NT 10.0; Win64; x64) AppleWebKit/537.36 (KHTML, like Gecko) Chrome/128.0.0.0 Safari/537.36 OPR/114.0.0.0" scale="1" border="10" version="24.7.16">
  <diagram id="DBjT5jrkx2Qw0QQmxCwV" name="Clausulas-Paragrafos">
    <mxGraphModel dx="2993" dy="-445" grid="0" gridSize="10" guides="1" tooltips="1" connect="1" arrows="1" fold="1" page="0" pageScale="1" pageWidth="827" pageHeight="1169" math="0" shadow="0">
      <root>
        <mxCell id="0" />
        <mxCell id="1" parent="0" />
        <mxCell id="qCrQ0lNqJQnAvxMywVYh-1" value="&lt;div style=&quot;box-sizing: border-box ; width: 100% ; background: #e4e4e4 ; padding: 2px&quot;&gt;clausula&lt;/div&gt;&lt;table style=&quot;width: 100% ; font-size: 1em&quot; cellpadding=&quot;2&quot; cellspacing=&quot;0&quot;&gt;&lt;tbody&gt;&lt;tr&gt;&lt;td&gt;ObjectId&lt;span style=&quot;white-space: pre;&quot;&gt;&#x9;&lt;/span&gt;&lt;/td&gt;&lt;td&gt;_id *&lt;/td&gt;&lt;/tr&gt;&lt;tr&gt;&lt;td&gt;string&lt;/td&gt;&lt;td&gt;nombre&lt;/td&gt;&lt;/tr&gt;&lt;tr&gt;&lt;td&gt;string&lt;br&gt;&lt;/td&gt;&lt;td&gt;descripcion&lt;br&gt;&lt;/td&gt;&lt;/tr&gt;&lt;tr&gt;&lt;td&gt;bool&lt;/td&gt;&lt;td&gt;predeterminado*&lt;/td&gt;&lt;/tr&gt;&lt;tr&gt;&lt;td&gt;bool&lt;br&gt;&lt;/td&gt;&lt;td&gt;&lt;span style=&quot;color: rgb(204, 0, 0);&quot;&gt;activo *&lt;/span&gt;&lt;br style=&quot;color: rgb(204, 0, 0);&quot;&gt;&lt;/td&gt;&lt;/tr&gt;&lt;tr&gt;&lt;td&gt;date&lt;/td&gt;&lt;td&gt;&lt;span style=&quot;color: rgb(204, 0, 0);&quot;&gt;fecha_creacion *&lt;/span&gt;&lt;br style=&quot;color: rgb(204, 0, 0);&quot;&gt;&lt;/td&gt;&lt;/tr&gt;&lt;tr&gt;&lt;td&gt;date&lt;/td&gt;&lt;td&gt;&lt;span style=&quot;color: rgb(204, 0, 0);&quot;&gt;fecha_modificacion *&lt;/span&gt;&lt;br&gt;&lt;/td&gt;&lt;/tr&gt;&lt;/tbody&gt;&lt;/table&gt;" style="verticalAlign=top;align=left;overflow=fill;html=1;rounded=0;shadow=0;comic=0;labelBackgroundColor=none;strokeWidth=1;fontFamily=Verdana;fontSize=12" parent="1" vertex="1">
          <mxGeometry x="-1137" y="1759" width="211" height="155.5" as="geometry" />
        </mxCell>
        <mxCell id="qCrQ0lNqJQnAvxMywVYh-2" value="&lt;div style=&quot;box-sizing: border-box ; width: 100% ; background: #e4e4e4 ; padding: 2px&quot;&gt;paragrafo&lt;/div&gt;&lt;table style=&quot;width: 100% ; font-size: 1em&quot; cellpadding=&quot;2&quot; cellspacing=&quot;0&quot;&gt;&lt;tbody&gt;&lt;tr&gt;&lt;td&gt;ObjectId&lt;span style=&quot;white-space: pre;&quot;&gt;&#x9;&lt;/span&gt;&lt;/td&gt;&lt;td&gt;_id *&lt;/td&gt;&lt;/tr&gt;&lt;tr&gt;&lt;td&gt;string&lt;/td&gt;&lt;td&gt;nombre&lt;/td&gt;&lt;/tr&gt;&lt;tr&gt;&lt;td&gt;string&lt;br&gt;&lt;/td&gt;&lt;td&gt;descripcion&lt;br&gt;&lt;/td&gt;&lt;/tr&gt;&lt;tr&gt;&lt;td&gt;bool&lt;/td&gt;&lt;td&gt;predeterminado*&lt;/td&gt;&lt;/tr&gt;&lt;tr&gt;&lt;td&gt;bool&lt;br&gt;&lt;/td&gt;&lt;td&gt;&lt;span style=&quot;color: rgb(204, 0, 0);&quot;&gt;activo *&lt;/span&gt;&lt;br style=&quot;color: rgb(204, 0, 0);&quot;&gt;&lt;/td&gt;&lt;/tr&gt;&lt;tr&gt;&lt;td&gt;date&lt;/td&gt;&lt;td&gt;&lt;span style=&quot;color: rgb(204, 0, 0);&quot;&gt;fecha_creacion *&lt;/span&gt;&lt;br style=&quot;color: rgb(204, 0, 0);&quot;&gt;&lt;/td&gt;&lt;/tr&gt;&lt;tr&gt;&lt;td&gt;date&lt;/td&gt;&lt;td&gt;&lt;span style=&quot;color: rgb(204, 0, 0);&quot;&gt;fecha_modificacion *&lt;/span&gt;&lt;br&gt;&lt;/td&gt;&lt;/tr&gt;&lt;/tbody&gt;&lt;/table&gt;" style="verticalAlign=top;align=left;overflow=fill;html=1;rounded=0;shadow=0;comic=0;labelBackgroundColor=none;strokeWidth=1;fontFamily=Verdana;fontSize=12" parent="1" vertex="1">
          <mxGeometry x="-1471" y="1759" width="211" height="155.5" as="geometry" />
        </mxCell>
        <mxCell id="qCrQ0lNqJQnAvxMywVYh-3" value="&lt;div style=&quot;box-sizing: border-box ; width: 100% ; background: #e4e4e4 ; padding: 2px&quot;&gt;orden_clausula&lt;/div&gt;&lt;table style=&quot;width: 100% ; font-size: 1em&quot; cellpadding=&quot;2&quot; cellspacing=&quot;0&quot;&gt;&lt;tbody&gt;&lt;tr&gt;&lt;td&gt;ObjectId&lt;/td&gt;&lt;td&gt;_id *&lt;/td&gt;&lt;/tr&gt;&lt;tr&gt;&lt;td&gt;integer&lt;br&gt;&lt;/td&gt;&lt;td&gt;&lt;font color=&quot;#66b2ff&quot;&gt;contrato_id&lt;/font&gt;&lt;/td&gt;&lt;/tr&gt;&lt;tr&gt;&lt;td&gt;ObjectId[]&lt;/td&gt;&lt;td&gt;&lt;font color=&quot;#66b2ff&quot;&gt;clausula_ids*&lt;/font&gt;&lt;/td&gt;&lt;/tr&gt;&lt;tr&gt;&lt;td&gt;bool&lt;/td&gt;&lt;td&gt;&lt;font color=&quot;#cc0000&quot;&gt;activo*&lt;/font&gt;&lt;/td&gt;&lt;/tr&gt;&lt;tr&gt;&lt;td&gt;integer&lt;/td&gt;&lt;td&gt;&lt;font color=&quot;#cc0000&quot;&gt;creado_por*&lt;/font&gt;&lt;/td&gt;&lt;/tr&gt;&lt;tr&gt;&lt;td&gt;integer&lt;/td&gt;&lt;td&gt;&lt;font color=&quot;#cc0000&quot;&gt;actualizado_por*&lt;/font&gt;&lt;/td&gt;&lt;/tr&gt;&lt;tr&gt;&lt;td&gt;date&lt;/td&gt;&lt;td&gt;&lt;span style=&quot;color: rgb(204, 0, 0);&quot;&gt;fecha_creacion *&lt;/span&gt;&lt;br style=&quot;color: rgb(204, 0, 0);&quot;&gt;&lt;/td&gt;&lt;/tr&gt;&lt;tr&gt;&lt;td&gt;date&lt;/td&gt;&lt;td&gt;&lt;span style=&quot;color: rgb(204, 0, 0);&quot;&gt;fecha_modificacion *&lt;/span&gt;&lt;br&gt;&lt;/td&gt;&lt;/tr&gt;&lt;/tbody&gt;&lt;/table&gt;" style="verticalAlign=top;align=left;overflow=fill;html=1;rounded=0;shadow=0;comic=0;labelBackgroundColor=none;strokeWidth=1;fontFamily=Verdana;fontSize=12" parent="1" vertex="1">
          <mxGeometry x="-810" y="1428" width="218" height="172" as="geometry" />
        </mxCell>
        <mxCell id="qCrQ0lNqJQnAvxMywVYh-4" value="&lt;div style=&quot;box-sizing: border-box ; width: 100% ; background: #e4e4e4 ; padding: 2px&quot;&gt;plantilla_tipo_contrato&lt;/div&gt;&lt;table style=&quot;width: 100% ; font-size: 1em&quot; cellpadding=&quot;2&quot; cellspacing=&quot;0&quot;&gt;&lt;tbody&gt;&lt;tr&gt;&lt;td&gt;ObjectId&lt;/td&gt;&lt;td&gt;_id *&lt;/td&gt;&lt;/tr&gt;&lt;tr&gt;&lt;td&gt;number&lt;/td&gt;&lt;td&gt;version*&lt;/td&gt;&lt;/tr&gt;&lt;tr&gt;&lt;td&gt;bool&lt;/td&gt;&lt;td&gt;version_actual*&lt;/td&gt;&lt;/tr&gt;&lt;tr&gt;&lt;td&gt;number&lt;/td&gt;&lt;td&gt;&lt;font color=&quot;#ff8000&quot;&gt;tipo_contrato_id*&lt;/font&gt;&lt;/td&gt;&lt;/tr&gt;&lt;tr&gt;&lt;td&gt;ObjectId&lt;/td&gt;&lt;td&gt;&lt;font color=&quot;#66b2ff&quot;&gt;orden_clausula_id*&lt;/font&gt;&lt;/td&gt;&lt;/tr&gt;&lt;tr&gt;&lt;td&gt;ObjectId[]&lt;/td&gt;&lt;td&gt;&lt;font color=&quot;#66b2ff&quot;&gt;orden_paragrafo_ids&lt;/font&gt;&lt;/td&gt;&lt;/tr&gt;&lt;tr&gt;&lt;td&gt;bool&lt;br&gt;&lt;/td&gt;&lt;td&gt;&lt;span style=&quot;color: rgb(204, 0, 0);&quot;&gt;activo *&lt;/span&gt;&lt;br style=&quot;color: rgb(204, 0, 0);&quot;&gt;&lt;/td&gt;&lt;/tr&gt;&lt;tr&gt;&lt;td&gt;date&lt;/td&gt;&lt;td&gt;&lt;span style=&quot;color: rgb(204, 0, 0);&quot;&gt;fecha_creacion *&lt;/span&gt;&lt;br style=&quot;color: rgb(204, 0, 0);&quot;&gt;&lt;/td&gt;&lt;/tr&gt;&lt;tr&gt;&lt;td&gt;date&lt;/td&gt;&lt;td&gt;&lt;span style=&quot;color: rgb(204, 0, 0);&quot;&gt;fecha_modificacion *&lt;/span&gt;&lt;br&gt;&lt;/td&gt;&lt;/tr&gt;&lt;/tbody&gt;&lt;/table&gt;" style="verticalAlign=top;align=left;overflow=fill;html=1;rounded=0;shadow=0;comic=0;labelBackgroundColor=none;strokeWidth=1;fontFamily=Verdana;fontSize=12" parent="1" vertex="1">
          <mxGeometry x="-1149" y="1419.5000000000002" width="218" height="189" as="geometry" />
        </mxCell>
        <mxCell id="qCrQ0lNqJQnAvxMywVYh-5" style="edgeStyle=orthogonalEdgeStyle;html=1;dashed=1;labelBackgroundColor=none;startArrow=ERone;endArrow=ERzeroToMany;fontFamily=Verdana;fontSize=12;align=left;startFill=0;endFill=0;entryX=1;entryY=0.5;entryDx=0;entryDy=0;exitX=0.5;exitY=1;exitDx=0;exitDy=0;" parent="1" source="qCrQ0lNqJQnAvxMywVYh-3" target="qCrQ0lNqJQnAvxMywVYh-1" edge="1">
          <mxGeometry relative="1" as="geometry">
            <mxPoint x="-938" y="1720.99" as="sourcePoint" />
            <mxPoint x="-859" y="1720.99" as="targetPoint" />
            <Array as="points">
              <mxPoint x="-701" y="1690" />
              <mxPoint x="-703" y="1690" />
              <mxPoint x="-703" y="1691" />
              <mxPoint x="-861" y="1691" />
              <mxPoint x="-861" y="1837" />
            </Array>
          </mxGeometry>
        </mxCell>
        <mxCell id="qCrQ0lNqJQnAvxMywVYh-6" style="edgeStyle=orthogonalEdgeStyle;html=1;dashed=1;labelBackgroundColor=none;startArrow=ERone;endArrow=ERzeroToMany;fontFamily=Verdana;fontSize=12;align=left;startFill=0;endFill=0;entryX=0.75;entryY=1;entryDx=0;entryDy=0;exitX=0;exitY=0.5;exitDx=0;exitDy=0;" parent="1" source="qCrQ0lNqJQnAvxMywVYh-1" target="qCrQ0lNqJQnAvxMywVYh-7" edge="1">
          <mxGeometry relative="1" as="geometry">
            <mxPoint x="-1201" y="1645.99" as="sourcePoint" />
            <mxPoint x="-1224" y="1625.99" as="targetPoint" />
            <Array as="points">
              <mxPoint x="-1204" y="1837" />
              <mxPoint x="-1204" y="1697" />
              <mxPoint x="-1314" y="1697" />
            </Array>
          </mxGeometry>
        </mxCell>
        <mxCell id="qCrQ0lNqJQnAvxMywVYh-7" value="&lt;div style=&quot;box-sizing: border-box ; width: 100% ; background: #e4e4e4 ; padding: 2px&quot;&gt;orden_paragrafo&lt;/div&gt;&lt;table style=&quot;width: 100% ; font-size: 1em&quot; cellpadding=&quot;2&quot; cellspacing=&quot;0&quot;&gt;&lt;tbody&gt;&lt;tr&gt;&lt;td&gt;ObjectId&lt;/td&gt;&lt;td&gt;_id *&lt;/td&gt;&lt;/tr&gt;&lt;tr&gt;&lt;td&gt;ObjectId[]&lt;/td&gt;&lt;td&gt;&lt;font color=&quot;#66b2ff&quot;&gt;paragrafo_ids*&lt;/font&gt;&lt;/td&gt;&lt;/tr&gt;&lt;tr&gt;&lt;td&gt;integer&lt;/td&gt;&lt;td&gt;&lt;font color=&quot;#66b2ff&quot;&gt;contrato_id&lt;/font&gt;&lt;/td&gt;&lt;/tr&gt;&lt;tr&gt;&lt;td&gt;ObjectId&lt;/td&gt;&lt;td&gt;&lt;font color=&quot;#66b2ff&quot;&gt;clausula_id*&lt;/font&gt;&lt;/td&gt;&lt;/tr&gt;&lt;tr&gt;&lt;td&gt;bool&lt;/td&gt;&lt;td&gt;&lt;font color=&quot;#cc0000&quot;&gt;activo*&lt;/font&gt;&lt;/td&gt;&lt;/tr&gt;&lt;tr&gt;&lt;td&gt;integer&lt;/td&gt;&lt;td&gt;&lt;font color=&quot;#cc0000&quot;&gt;creado_por*&lt;/font&gt;&lt;/td&gt;&lt;/tr&gt;&lt;tr&gt;&lt;td&gt;integer&lt;/td&gt;&lt;td&gt;&lt;font color=&quot;#cc0000&quot;&gt;actualizado_por*&lt;/font&gt;&lt;/td&gt;&lt;/tr&gt;&lt;tr&gt;&lt;td&gt;date&lt;/td&gt;&lt;td&gt;&lt;span style=&quot;color: rgb(204, 0, 0);&quot;&gt;fecha_creacion *&lt;/span&gt;&lt;br style=&quot;color: rgb(204, 0, 0);&quot;&gt;&lt;/td&gt;&lt;/tr&gt;&lt;tr&gt;&lt;td&gt;date&lt;/td&gt;&lt;td&gt;&lt;span style=&quot;color: rgb(204, 0, 0);&quot;&gt;fecha_modificacion *&lt;/span&gt;&lt;br&gt;&lt;/td&gt;&lt;/tr&gt;&lt;/tbody&gt;&lt;/table&gt;" style="verticalAlign=top;align=left;overflow=fill;html=1;rounded=0;shadow=0;comic=0;labelBackgroundColor=none;strokeWidth=1;fontFamily=Verdana;fontSize=12" parent="1" vertex="1">
          <mxGeometry x="-1478" y="1418.86" width="218" height="189.64" as="geometry" />
        </mxCell>
        <mxCell id="qCrQ0lNqJQnAvxMywVYh-8" style="edgeStyle=orthogonalEdgeStyle;html=1;dashed=1;labelBackgroundColor=none;startArrow=ERzeroToMany;endArrow=ERzeroToMany;fontFamily=Verdana;fontSize=12;align=left;startFill=0;endFill=0;entryX=0.25;entryY=1;entryDx=0;entryDy=0;exitX=0.5;exitY=0;exitDx=0;exitDy=0;" parent="1" source="qCrQ0lNqJQnAvxMywVYh-2" target="qCrQ0lNqJQnAvxMywVYh-7" edge="1">
          <mxGeometry relative="1" as="geometry">
            <mxPoint x="-1104" y="1712.99" as="sourcePoint" />
            <mxPoint x="-1252" y="1712.99" as="targetPoint" />
            <Array as="points" />
          </mxGeometry>
        </mxCell>
        <mxCell id="qCrQ0lNqJQnAvxMywVYh-9" style="edgeStyle=orthogonalEdgeStyle;html=1;dashed=1;labelBackgroundColor=none;startArrow=ERone;endArrow=ERzeroToMany;fontFamily=Verdana;fontSize=12;align=left;startFill=0;endFill=0;entryX=1;entryY=0.5;entryDx=0;entryDy=0;exitX=0;exitY=0.5;exitDx=0;exitDy=0;" parent="1" source="qCrQ0lNqJQnAvxMywVYh-4" target="qCrQ0lNqJQnAvxMywVYh-7" edge="1">
          <mxGeometry relative="1" as="geometry">
            <mxPoint x="-1030" y="1720.49" as="sourcePoint" />
            <mxPoint x="-1217" y="1561.49" as="targetPoint" />
            <Array as="points" />
          </mxGeometry>
        </mxCell>
        <mxCell id="qCrQ0lNqJQnAvxMywVYh-10" style="edgeStyle=orthogonalEdgeStyle;html=1;dashed=1;labelBackgroundColor=none;startArrow=ERzeroToMany;endArrow=ERone;fontFamily=Verdana;fontSize=12;align=left;startFill=0;endFill=0;entryX=1;entryY=0.5;entryDx=0;entryDy=0;exitX=0;exitY=0.5;exitDx=0;exitDy=0;" parent="1" source="qCrQ0lNqJQnAvxMywVYh-3" target="qCrQ0lNqJQnAvxMywVYh-4" edge="1">
          <mxGeometry relative="1" as="geometry">
            <mxPoint x="-637" y="1745.99" as="sourcePoint" />
            <mxPoint x="-824" y="1586.99" as="targetPoint" />
            <Array as="points" />
          </mxGeometry>
        </mxCell>
        <mxCell id="qCrQ0lNqJQnAvxMywVYh-11" value="&lt;b&gt;&lt;font color=&quot;#ff0000&quot;&gt;Rojo: Campos constantes de Auditoría&lt;/font&gt;&lt;/b&gt;&lt;div&gt;&lt;b&gt;&lt;font color=&quot;#ff0000&quot;&gt;&lt;br&gt;&lt;/font&gt;&lt;/b&gt;&lt;/div&gt;&lt;div&gt;&lt;b&gt;&lt;font color=&quot;#3399ff&quot;&gt;Azul: ObjectId de relación con tabla&lt;/font&gt;&lt;/b&gt;&lt;/div&gt;&lt;div&gt;&lt;b&gt;&lt;font color=&quot;#3399ff&quot;&gt;&lt;br&gt;&lt;/font&gt;&lt;/b&gt;&lt;/div&gt;&lt;div&gt;&lt;b&gt;&lt;font color=&quot;#ff8000&quot;&gt;Amarillo: IDs de Parámetros CRUD&lt;/font&gt;&lt;/b&gt;&lt;/div&gt;" style="rounded=0;whiteSpace=wrap;html=1;" parent="1" vertex="1">
          <mxGeometry x="-849" y="1866" width="280" height="80" as="geometry" />
        </mxCell>
      </root>
    </mxGraphModel>
  </diagram>
</mxfile>
